<?xml version="1.0" encoding="UTF-8"?>
<!-- Generated by Pixelmator Pro 3.6.18 -->
<svg width="1009" height="255" viewBox="0 0 1009 255" xmlns="http://www.w3.org/2000/svg">
    <g id="ndepend-logo">
        <g id="logo">
            <path id="Path" fill="#0077c6" stroke="none" d="M 249.129318 114.104614 C 248.405121 109.397232 244.05983 105.595108 239.533493 105.595108 L 215.45343 105.595108 C 210.746033 105.595108 205.857605 102.698242 204.590225 98.896133 C 203.32283 95.275085 201.512299 83.506622 204.952332 80.24765 L 221.971329 63.228622 C 225.230301 59.969681 225.592392 54.357025 222.514496 50.735962 L 202.417572 30.639038 C 198.796509 27.561127 193.183868 27.923233 189.924896 31.182205 L 171.095367 50.011765 L 171.095367 88.57608 L 171.095367 128.769928 C 170.914307 153.93634 150.274246 174.033264 125.107819 174.033264 C 99.941422 174.033264 79.301346 153.93634 79.120293 128.769928 L 79.120293 88.57608 L 79.120293 50.192795 C 78.39608 49.830688 60.109699 31.363266 60.109699 31.363266 C 56.850735 28.104294 51.238087 27.742203 47.61702 30.820099 L 27.520109 50.917023 C 24.442194 54.538086 24.80431 60.150726 28.063259 63.409683 L 45.082272 80.42868 C 48.341236 83.687653 49.789654 89.300308 47.979122 92.740311 C 46.34964 96.180344 39.28857 105.776169 34.581177 105.776169 L 10.501097 105.776169 C 5.793706 105.776169 1.448432 109.578278 0.905266 114.28566 C 0.905266 114.28566 0 120.803574 0 128.588867 C 0 136.374176 0.905266 142.89209 0.905266 142.89209 C 1.629482 147.599472 5.974764 151.401596 10.501097 151.401596 L 34.581177 151.401596 C 39.28857 151.401596 44.177006 154.298431 45.444374 158.100555 C 46.711754 161.721634 48.522285 173.490097 45.082272 176.749054 L 28.063259 193.768066 C 24.80431 197.027023 24.442194 202.639664 27.520109 206.260727 L 47.61702 226.357651 C 51.238087 229.435547 56.850735 229.073456 60.109699 225.814484 L 77.1287 208.795486 C 80.387665 205.53653 86.000313 204.088089 89.440331 205.898621 C 92.880341 207.528122 102.476158 214.589188 102.476158 219.296585 L 102.476158 243.376648 C 102.476158 248.084045 106.27829 252.429306 110.985672 252.972473 C 110.985672 252.972473 117.503586 253.877747 125.288887 253.877747 C 133.074188 253.877747 139.592087 252.972473 139.592087 252.972473 C 144.299484 252.248276 147.920547 247.902985 147.920547 243.376648 L 147.920547 219.296585 C 147.920547 214.589188 150.817383 209.700745 154.619507 208.43338 C 158.24057 207.165985 170.009048 205.53653 173.268005 208.795486 L 190.287003 225.814484 C 193.545975 229.073456 199.15863 229.435547 202.779694 226.357651 L 222.876602 206.260727 C 225.954498 202.639664 225.592392 197.027023 222.333435 193.768066 L 205.314438 176.749054 C 202.055466 173.490097 200.60704 167.877441 202.417572 164.437439 C 204.047058 160.997406 211.108139 151.401596 215.815536 151.401596 L 239.895615 151.401596 C 244.602997 151.401596 248.948288 147.599472 249.491425 142.89209 C 249.491425 142.89209 250.396698 136.374176 250.396698 128.588867 C 250.034592 120.622528 249.129318 114.104614 249.129318 114.104614"/>
            <path id="path1" fill="#ff9f10" stroke="none" d="M 102.295105 13.801102 L 102.295105 37.881165 L 102.295105 88.57608 C 103.019325 88.213989 103.743538 87.851883 104.467758 87.489777 C 104.829857 87.308716 105.191956 87.127686 105.55407 86.946625 C 106.640388 86.403458 107.545654 86.041351 108.631973 85.679245 C 109.356186 85.498184 109.899353 85.136078 110.623558 84.955017 C 111.166725 84.773987 111.709885 84.592926 112.253036 84.41188 C 113.158302 84.23082 113.882523 83.868713 114.787788 83.687653 C 115.149887 83.687653 115.512001 83.506622 115.874107 83.325546 C 117.141487 83.144485 118.408852 82.963455 119.676224 82.782379 C 120.038338 82.782379 120.400436 82.782379 120.76255 82.601349 C 122.029922 82.420288 123.478355 82.420288 124.926773 82.420288 C 126.375191 82.420288 127.642586 82.420288 129.090988 82.601349 C 129.45311 82.601349 129.815216 82.601349 130.177322 82.782379 C 131.444687 82.963455 132.712051 83.144485 133.979446 83.325546 C 134.341553 83.325546 134.703644 83.506622 135.06575 83.687653 C 135.971024 83.868713 136.876282 84.049759 137.60051 84.41188 C 138.143646 84.592926 138.686813 84.773987 139.411041 84.955017 C 140.135254 85.136078 140.678421 85.498184 141.402618 85.679245 C 142.488953 86.041351 143.394211 86.584518 144.480515 86.946625 C 144.842651 87.127686 145.204742 87.308716 145.566849 87.489777 C 146.291046 87.851883 147.015274 88.213989 147.739487 88.57608 L 147.739487 37.881165 L 147.739487 13.801102 C 147.739487 9.093704 143.937378 4.748428 139.411041 4.205276 C 139.411041 4.205276 132.893112 3.300003 125.107819 3.300003 C 117.32254 3.300003 110.804619 4.205276 110.804619 4.205276 C 106.097221 4.748428 102.295105 9.093704 102.295105 13.801102"/>
        </g>
        <g id="ndepend">
            <path id="path2" fill="#ff9f10" stroke="none" d="M 328.541382 108.614197 L 328.541382 118.028961 C 335.059326 111.330002 343.930908 106.984741 354.975189 106.984741 C 378.512115 106.984741 388.288971 124.908997 388.288971 147.359619 L 388.288971 165.827057 C 388.288971 169.991287 389.013184 173.61235 392.996368 173.61235 C 395.531097 173.61235 399.695313 172.707092 402.230103 171.439697 L 402.230103 198.05455 C 397.160583 200.227173 388.832123 201.675613 379.055237 201.675613 C 363.66571 201.675613 354.613068 194.252411 354.613068 174.155487 L 354.613068 152.97226 C 354.613068 142.652222 349.90567 137.582733 341.75827 137.582733 C 335.059326 137.582733 330.71405 141.565918 328.541382 145.186981 L 328.541382 199.865082 L 295.046539 199.865082 L 295.046539 108.614197 L 328.541382 108.614197 Z"/>
            <path id="path3" fill="#0077c6" stroke="none" d="M 503.982025 76.024612 L 503.982025 200.046112 L 488.592499 200.046112 L 486.057739 186.467117 C 480.264038 197.692413 468.676636 201.675613 456.546082 201.675613 C 429.388092 201.675613 412.188049 180.492355 412.188049 154.601746 C 412.188049 129.435333 428.482819 107.527893 456.546082 107.527893 C 464.693481 107.527893 476.461945 109.51947 484.790344 120.563736 L 484.790344 76.024612 L 503.982025 76.024612 Z M 431.560699 154.601746 C 431.560699 172.888123 442.967102 185.018677 458.89975 185.018677 C 475.013489 185.018677 486.963013 172.16391 486.963013 154.601746 C 486.963013 137.401672 475.556671 124.184799 458.89975 124.184799 C 442.967102 124.184799 431.560699 136.315369 431.560699 154.601746"/>
            <path id="path4" fill="#0077c6" stroke="none" d="M 561.738037 109.157364 C 588.352844 109.157364 601.931885 130.883759 601.931885 153.696472 C 601.931885 158.765976 601.207642 162.024933 601.207642 162.024933 L 537.114807 162.024933 C 538.20105 176.690247 550.331665 184.656586 564.272827 184.656586 C 573.868591 184.656586 583.283386 181.75975 589.982361 178.681824 L 596.319214 192.260818 C 588.352844 196.60611 576.22229 200.046112 564.091736 200.046112 C 537.295837 200.046112 518.285217 181.216583 518.285217 155.325958 C 518.285217 129.073227 536.028503 109.157364 561.738037 109.157364 M 584.731812 148.264877 C 584.18866 136.496414 578.213867 125.271118 562.824341 125.271118 C 549.06427 125.271118 538.744263 134.142731 537.114807 148.264877 L 584.731812 148.264877 Z"/>
            <path id="path5" fill="#0077c6" stroke="none" d="M 708.572266 154.782791 C 708.572266 179.406052 692.458496 201.675613 664.938354 201.675613 C 656.066772 201.675613 643.574097 200.046112 636.15094 188.820816 L 636.15094 254 L 617.14032 254 L 617.14032 109.157364 L 632.348816 109.157364 L 634.702515 122.555298 C 641.58252 111.511063 654.256226 107.527893 665.119446 107.527893 C 691.191101 107.527893 708.572266 127.986916 708.572266 154.782791 M 633.978333 154.782791 C 633.978333 172.526016 645.384644 185.018677 662.041565 185.018677 C 677.250061 185.018677 689.380554 172.344955 689.380554 154.782791 C 689.380554 137.039581 677.06897 124.184799 662.041565 124.184799 C 646.289917 124.184799 633.978333 136.315369 633.978333 154.782791"/>
            <path id="path6" fill="#0077c6" stroke="none" d="M 764.698792 108.976303 C 791.313538 108.976303 805.073669 130.883759 805.073669 153.877533 C 805.073669 158.947021 804.349426 162.205994 804.349426 162.205994 L 740.0755 162.205994 C 741.161804 177.052353 753.292419 185.018677 767.414612 185.018677 C 777.010437 185.018677 786.425232 182.121857 793.305237 179.043945 L 799.64209 192.622955 C 791.675659 196.968216 779.364075 200.408218 767.233521 200.408218 C 740.437622 200.408218 721.245972 181.578674 721.245972 155.325958 C 721.06488 129.073227 738.808167 108.976303 764.698792 108.976303 M 787.873596 148.083832 C 787.330444 136.134308 781.174622 124.908997 765.785095 124.908997 C 752.025024 124.908997 741.705017 133.96167 740.0755 148.083832 L 787.873596 148.083832 Z"/>
            <path id="path7" fill="#0077c6" stroke="none" d="M 834.947449 109.157364 L 838.025391 124.727951 C 838.38739 122.736359 846.715942 107.527893 866.993896 107.527893 C 885.461243 107.527893 901.212952 118.572128 901.212952 145.911194 L 901.212952 199.865082 L 882.021301 199.865082 L 882.021301 146.454346 C 882.021301 133.237457 874.236023 125.452164 862.286438 125.452164 C 847.078064 125.452164 839.292664 137.944855 839.292664 149.532257 L 839.292664 199.684021 L 820.101074 199.684021 L 820.101074 109.157364 L 834.947449 109.157364 Z"/>
            <path id="path8" fill="#0077c6" stroke="none" d="M 1007.129089 76.024612 L 1007.129089 200.046112 L 991.739563 200.046112 L 989.385925 186.467117 C 983.592163 197.692413 971.82373 201.675613 959.874207 201.675613 C 932.716248 201.675613 915.516174 180.492355 915.516174 154.601746 C 915.516174 129.435333 931.810974 107.527893 959.874207 107.527893 C 968.021606 107.527893 979.7901 109.51947 987.9375 120.563736 L 987.9375 76.024612 L 1007.129089 76.024612 Z M 934.707764 154.601746 C 934.707764 172.888123 946.114136 185.018677 962.046875 185.018677 C 978.160583 185.018677 989.929016 172.16391 989.929016 154.601746 C 989.929016 137.401672 978.522705 124.184799 962.046875 124.184799 C 946.114136 124.184799 934.707764 136.315369 934.707764 154.601746"/>
        </g>
        <path id="powered-by" fill="#0077c6" fill-rule="evenodd" stroke="none" d="M 686.33075 19.141647 L 694.120483 19.141647 C 693.128845 21.829559 690.923706 27.962128 687.505066 37.539505 C 684.947632 44.742126 682.807739 50.613739 681.085388 55.15448 C 677.014404 65.854004 674.143799 72.378021 672.473633 74.726685 C 670.803467 77.075348 667.932861 78.24968 663.861877 78.24968 C 662.870239 78.24968 662.106873 78.210526 661.571899 78.132248 C 661.036926 78.053955 660.377991 77.910431 659.595154 77.70166 L 659.595154 71.281967 C 660.821655 71.621231 661.708923 71.830002 662.256958 71.908279 C 662.804993 71.986572 663.287781 72.025711 663.705261 72.025711 C 665.010132 72.025711 665.969116 71.810425 666.582397 71.379837 C 667.195679 70.949249 667.71106 70.420792 668.128601 69.794495 C 668.259094 69.585724 668.728821 68.515778 669.537781 66.584641 C 670.346802 64.653519 670.93396 63.218231 671.299316 62.278763 L 655.798096 19.141647 L 663.783569 19.141647 L 675.018005 53.275558 Z M 615.009644 3.366455 L 621.859924 3.366455 L 621.859924 24.230423 C 623.399597 22.221008 625.23938 20.687851 627.379272 19.630951 C 629.519165 18.574051 631.841736 18.045609 634.346985 18.045609 C 639.566223 18.045609 643.800354 19.839722 647.049377 23.427963 C 650.29834 27.01619 651.922852 32.307159 651.922852 39.30101 C 651.922852 45.92952 650.317932 51.435776 647.108093 55.819946 C 643.898254 60.204117 639.448792 62.396194 633.759827 62.396194 C 630.576111 62.396194 627.888184 61.626358 625.696106 60.086685 C 624.391296 59.173309 622.995117 57.711914 621.507629 55.702515 L 621.507629 61.065292 L 615.009644 61.065292 Z M 633.329224 56.172241 C 637.139282 56.172241 639.990295 54.658661 641.882324 51.631485 C 643.774292 48.604324 644.720276 44.611603 644.720276 39.653305 C 644.720276 35.243042 643.774292 31.589569 641.882324 28.692886 C 639.990295 25.796188 637.204529 24.347855 633.524963 24.347855 C 630.315125 24.347855 627.503235 25.535233 625.089355 27.909988 C 622.675476 30.284744 621.468506 34.199188 621.468506 39.653305 C 621.468506 43.593842 621.964294 46.790634 622.955994 49.243683 C 624.808838 53.862717 628.266541 56.172241 633.329224 56.172241 Z M 562.947632 40.592773 C 562.947632 45.081329 563.900146 48.839188 565.805176 51.866364 C 567.710205 54.893524 570.763489 56.407104 574.964966 56.407104 C 578.22699 56.407104 580.908386 55.00444 583.009155 52.199081 C 585.109863 49.393738 586.160278 45.368393 586.160278 40.123047 C 586.160278 34.8255 585.077271 30.904541 582.911255 28.360153 C 580.7453 25.815765 578.070435 24.543579 574.886658 24.543579 C 571.337585 24.543579 568.460449 25.900574 566.25531 28.614594 C 564.050171 31.328598 562.947632 35.321335 562.947632 40.592773 Z M 573.555786 18.397903 C 576.765625 18.397903 579.453491 19.076401 581.619507 20.433411 C 582.872131 21.216309 584.294373 22.586349 585.88623 24.543579 L 585.88623 3.366455 L 592.658203 3.366455 L 592.658203 61.065292 L 586.316833 61.065292 L 586.316833 55.232773 C 584.672791 57.816299 582.728577 59.68219 580.484314 60.830429 C 578.240051 61.978653 575.669556 62.55278 572.772888 62.55278 C 568.101624 62.55278 564.056702 60.589035 560.638123 56.661545 C 557.219482 52.734055 555.510193 47.508331 555.510193 40.984222 C 555.510193 34.87764 557.069458 29.58667 560.187927 25.111176 C 563.306458 20.635666 567.76239 18.397903 573.555786 18.397903 Z M 531.358093 18.202179 C 534.333069 18.202179 537.216736 18.900253 540.009033 20.296402 C 542.801331 21.692551 544.928162 23.499725 546.389587 25.717911 C 547.798767 27.831696 548.73822 30.297806 549.207947 33.116196 C 549.625488 35.047318 549.83429 38.126678 549.83429 42.354279 L 519.105896 42.354279 C 519.236389 46.607956 520.241089 50.02005 522.120056 52.59053 C 523.998962 55.161011 526.908691 56.446259 530.849243 56.446259 C 534.528809 56.446259 537.464661 55.232773 539.656738 52.805817 C 540.909363 51.396622 541.796631 49.76561 542.318542 47.912781 L 549.24707 47.912781 C 549.064453 49.452454 548.457703 51.168289 547.42688 53.060257 C 546.396057 54.95224 545.241333 56.498444 543.962585 57.698868 C 541.822693 59.786575 539.17395 61.19577 536.016296 61.926468 C 534.320007 62.344009 532.401978 62.55278 530.262085 62.55278 C 525.042847 62.55278 520.619507 60.654266 516.992126 56.857269 C 513.364746 53.060257 511.551056 47.74321 511.551056 40.90593 C 511.551056 34.173035 513.377808 28.705933 517.03125 24.504425 C 520.684753 20.302933 525.460327 18.202179 531.358093 18.202179 Z M 542.592529 36.756622 C 542.305481 33.703354 541.640015 31.263367 540.596191 29.43663 C 538.665039 26.044113 535.4422 24.347855 530.927551 24.347855 C 527.691589 24.347855 524.9776 25.515656 522.785461 27.851273 C 520.593384 30.18689 519.432129 33.155334 519.301636 36.756622 Z M 487.398956 19.141647 L 494.092651 19.141647 L 494.092651 26.383362 C 494.640686 24.974167 495.984619 23.258331 498.124512 21.23587 C 500.264404 19.213409 502.73053 18.202179 505.522827 18.202179 C 505.65329 18.202179 505.875122 18.215225 506.188263 18.241333 C 506.501434 18.267426 507.036407 18.319611 507.793182 18.397903 L 507.793182 25.835342 C 507.375641 25.75705 506.990723 25.704865 506.638428 25.678757 C 506.286133 25.652664 505.901215 25.639618 505.483673 25.639618 C 501.93457 25.639618 499.20752 26.781326 497.30249 29.064758 C 495.397461 31.348175 494.444946 33.977371 494.444946 36.952347 L 494.444946 61.065292 L 487.398956 61.065292 Z M 460.076172 18.202179 C 463.051147 18.202179 465.934784 18.900253 468.727081 20.296402 C 471.519379 21.692551 473.64624 23.499725 475.107635 25.717911 C 476.516815 27.831696 477.456299 30.297806 477.926025 33.116196 C 478.343567 35.047318 478.552338 38.126678 478.552338 42.354279 L 447.823975 42.354279 C 447.954468 46.607956 448.959167 50.02005 450.838104 52.59053 C 452.717041 55.161011 455.62677 56.446259 459.567291 56.446259 C 463.246887 56.446259 466.182709 55.232773 468.374786 52.805817 C 469.627411 51.396622 470.514679 49.76561 471.036621 47.912781 L 477.965179 47.912781 C 477.782501 49.452454 477.175751 51.168289 476.144958 53.060257 C 475.114136 54.95224 473.959381 56.498444 472.680664 57.698868 C 470.540771 59.786575 467.891998 61.19577 464.734375 61.926468 C 463.038116 62.344009 461.120026 62.55278 458.980133 62.55278 C 453.760895 62.55278 449.337555 60.654266 445.710175 56.857269 C 442.082794 53.060257 440.269104 47.74321 440.269104 40.90593 C 440.269104 34.173035 442.095856 28.705933 445.749329 24.504425 C 449.402802 20.302933 454.178436 18.202179 460.076172 18.202179 Z M 471.310608 36.756622 C 471.02356 33.703354 470.358093 31.263367 469.31427 29.43663 C 467.383118 26.044113 464.160248 24.347855 459.645599 24.347855 C 456.409668 24.347855 453.695648 25.515656 451.503571 27.851273 C 449.311462 30.18689 448.150177 33.155334 448.019714 36.756622 Z M 387.972229 19.141647 L 396.03595 52.17952 L 404.217133 19.141647 L 412.124298 19.141647 L 420.344635 51.983795 L 428.917236 19.141647 L 435.963226 19.141647 L 423.789337 61.065292 L 416.46933 61.065292 L 407.935852 28.614594 L 399.676392 61.065292 L 392.356384 61.065292 L 380.260773 19.141647 Z M 356.774139 56.524536 C 361.445374 56.524536 364.648682 54.756516 366.384094 51.220474 C 368.119476 47.684433 368.987183 43.750427 368.987183 39.418442 C 368.987183 35.503998 368.36087 32.320267 367.108246 29.867218 C 365.124939 26.004959 361.706329 24.073837 356.852417 24.073837 C 352.546539 24.073837 349.414978 25.717911 347.457764 29.006027 C 345.500549 32.294159 344.521942 36.260788 344.521942 40.90593 C 344.521942 45.368393 345.500549 49.087112 347.457764 52.062073 C 349.414978 55.037048 352.520447 56.524536 356.774139 56.524536 Z M 357.048157 17.928177 C 362.450073 17.928177 367.016907 19.728821 370.748688 23.330093 C 374.480438 26.931381 376.346344 32.228867 376.346344 39.222717 C 376.346344 45.981705 374.702271 51.566254 371.414154 55.976517 C 368.126007 60.38678 363.024261 62.591919 356.108673 62.591919 C 350.3414 62.591919 345.761505 60.64122 342.368988 56.739838 C 338.976501 52.83844 337.280243 47.59967 337.280243 41.023361 C 337.280243 33.977325 339.067841 28.366684 342.643005 24.191269 C 346.218201 20.015869 351.019928 17.928177 357.048157 17.928177 Z M 313.245575 56.328812 C 316.533691 56.328812 319.267303 54.95224 321.44632 52.199081 C 323.625366 49.445923 324.714874 45.329239 324.714874 39.84903 C 324.714874 36.508713 324.232117 33.638123 323.266541 31.237259 C 321.439789 26.618225 318.099487 24.308701 313.245575 24.308701 C 308.36557 24.308701 305.025269 26.748703 303.224609 31.628708 C 302.259064 34.238342 301.776276 37.552567 301.776276 41.571381 C 301.776276 44.807327 302.259064 47.560471 303.224609 49.830856 C 305.051361 54.162827 308.391663 56.328812 313.245575 56.328812 Z M 295.004303 19.337372 L 301.854553 19.337372 L 301.854553 24.895874 C 303.263763 22.990845 304.803436 21.516403 306.473602 20.472565 C 308.848358 18.906784 311.640656 18.123901 314.850494 18.123901 C 319.600006 18.123901 323.631897 19.944107 326.946106 23.584534 C 330.260345 27.22496 331.91745 32.424591 331.91745 39.183578 C 331.91745 48.317322 329.529633 54.841324 324.754028 58.755768 C 321.726868 61.234909 318.203857 62.474487 314.185028 62.474487 C 311.027405 62.474487 308.378632 61.782944 306.238739 60.399841 C 304.986115 59.616943 303.589966 58.272995 302.050293 56.367966 L 302.050293 77.779938 L 295.004303 77.779938 Z"/>
    </g>
</svg>
